<svg id="Layer_1" data-name="Layer 1" xmlns="http://www.w3.org/2000/svg" viewBox="0 0 665.11 578"><defs><style>.cls-1{fill:#008ab7;}.cls-2{fill:#fbba00;}.cls-3{fill:#31b7bc;}.cls-4{fill:#ef7d00;}.cls-5{fill:#706f6f;}</style></defs><title>AQUA RIO</title><path class="cls-1" d="M621,334c.63-3.06.8-6.3-.9-9.11-2.07-3.47-13.87-11.78-23.48-.35s2.52,28,15.12,21.63c3.89-1.95,8.34-7.7,9.26-12.17" transform="translate(-39.24 -7.89)"/><path class="cls-1" d="M680.31,390c-6.65,7.77-16.13,13.11-25.69,16.07-12.39,3.87-18.77-2.34-19.61-10.83-.15-5.19,3.41-10.06,7.35-14.13,4.17-4.28,13.7-5.87,19.22-7.08,8.74-1.94,24.41-2.91,25.53,1.7,1,4.8-4.41,11.48-6.8,14.27M615,401c0,7.78,2.16,15.17,8,20.94,17.31,17,50.55-1.39,65.47-13.64,5.5-4.52,14.15-16.24,15.73-30.52,3.4-30.84-50.89-37.44-72.2-18.84-13.38,11.68-17,32.43-17,42.06" transform="translate(-39.24 -7.89)"/><path class="cls-2" d="M500.12,58.54s-22.92-28-96.76-24c0,0-53.57-.81-119.12,26.93,0,0-41.59,18.64-53.58,34.37l30.12-88s.26,39.46,33.31,64.24c0,0,55.43,45.85,130.87,37.31,0,0,45-4.25,75.16-50.9" transform="translate(-39.24 -7.89)"/><path class="cls-3" d="M207.7,154.77,179.45,264c13.61-13.16,34-27.24,52.55-38.92-25-34.11-24.3-70.34-24.3-70.34m248,44.2c-73,42.62-172,.56-176.12-1.24-.84.4-1.71.83-2.55,1.26,0,0-21,11.08-45,26.12a125.4,125.4,0,0,0,36.58,33.24s33.41,22.43,79.21,23.23c0,0,89.39,7.77,119.23-55.4,0,0-.31-13.72-11.36-27.21" transform="translate(-39.24 -7.89)"/><path class="cls-4" d="M313.56,116.89s-55.16,7.87-107.8,33.94c16.64,16.39,40.22,32.82,73.68,46.83l.15.07C324,176,367.13,173.94,367.13,173.94c51.53-4.17,76.47,10.28,88.58,25l.43-.26s49.57-36.24,56-53.3c0,0-30.91-50.63-198.55-28.53m109.83,55.72c-27.87,2.77-58.41-11.2-58.41-11.2a121.52,121.52,0,0,1-20.78-10.26c-9.62,4.53-18.94,10.53-23.19,18L309,118.5s11.47,18,35.18,32.65a164.72,164.72,0,0,1,29.58-10.26c73.81-12.78,84.23,8.8,84.23,8.8-.27.79-2.51,19.74-34.62,22.92m-257-106.08L147,192.07c16.64-17.2,37.5-30.72,58.78-41.24-42.79-42.25-39.33-84.3-39.33-84.3" transform="translate(-39.24 -7.89)"/><path class="cls-5" d="M293.14,517.68h-8.27v12.86h8.27c4,0,6.86-2.18,6.86-6.45s-2.82-6.41-6.86-6.41m.32,16h-8.59V547h-3.46V514.59h12c5.9,0,10,3.68,10,9.5s-4.09,9.54-10,9.54" transform="translate(-39.24 -7.89)"/><path class="cls-5" d="M325.72,519.72a7.92,7.92,0,0,0-11.18,0c-2,2.09-2.27,4.28-2.27,11s.23,9,2.27,11a7.89,7.89,0,0,0,11.18,0c2-2.09,2.28-4.27,2.28-11s-.23-9-2.28-11m2.68,24.14a11.86,11.86,0,0,1-16.54,0c-3.05-3.05-3.05-6.23-3.05-13.09s0-10,3.05-13.09a11.83,11.83,0,0,1,16.54,0c3.05,3,3.05,6.23,3.05,13.09s0,10-3.05,13.09" transform="translate(-39.24 -7.89)"/><path class="cls-5" d="M351.67,517.68H343v11.86h8.63c3.77,0,6.46-1.95,6.46-5.91s-2.69-6-6.46-6m6.5,29.27-7.36-14.36H343V547h-3.45V514.59H352c5.64,0,9.59,3.41,9.59,9a8.39,8.39,0,0,1-7,8.68L362.22,547Z" transform="translate(-39.24 -7.89)"/><polygon class="cls-5" points="339.66 509.79 339.66 539.06 336.21 539.06 336.21 509.79 326.84 509.79 326.84 506.7 349.02 506.7 349.02 509.79 339.66 509.79"/><path class="cls-5" d="M409.07,519.72a7.92,7.92,0,0,0-11.18,0c-2,2.09-2.27,4.28-2.27,11s.23,9,2.27,11a7.89,7.89,0,0,0,11.18,0c2.05-2.09,2.27-4.27,2.27-11s-.22-9-2.27-11m2.68,24.14a11.86,11.86,0,0,1-16.54,0c-3-3.05-3-6.23-3-13.09s0-10,3-13.09a11.83,11.83,0,0,1,16.54,0c3.05,3,3.05,6.23,3.05,13.09s0,10-3.05,13.09" transform="translate(-39.24 -7.89)"/><polygon class="cls-5" points="419.28 539.06 419.28 514.47 410.42 533.97 407.46 533.97 398.47 514.47 398.47 539.06 395.01 539.06 395.01 506.7 398.47 506.7 409.01 529.65 419.28 506.7 422.74 506.7 422.74 539.06 419.28 539.06"/><path class="cls-5" d="M480.61,519.54l-6.1,17.09h12.1ZM490.2,547l-2.59-7.32H473.47L470.88,547H467.2l11.91-32.36H482L493.88,547Z" transform="translate(-39.24 -7.89)"/><path class="cls-5" d="M511.19,517.68h-8.63v11.86h8.63c3.77,0,6.46-1.95,6.46-5.91s-2.69-6-6.46-6m6.5,29.27-7.36-14.36h-7.77V547h-3.45V514.59h12.4c5.64,0,9.59,3.41,9.59,9a8.39,8.39,0,0,1-7,8.68L521.74,547Z" transform="translate(-39.24 -7.89)"/><path class="cls-5" d="M538.19,519.54l-6.09,17.09h12.09ZM547.78,547l-2.59-7.32H531.05L528.46,547h-3.68l11.91-32.36h2.91L551.46,547Z" transform="translate(-39.24 -7.89)"/><polygon class="cls-5" points="524.99 539.06 522.17 539.06 511.53 506.7 515.17 506.7 523.58 532.88 531.99 506.7 535.62 506.7 524.99 539.06"/><rect class="cls-5" x="540.66" y="506.7" width="3.45" height="32.36"/><polygon class="cls-5" points="553.48 539.06 553.48 506.7 556.93 506.7 556.93 535.97 573.48 535.97 573.48 539.06 553.48 539.06"/><polygon class="cls-5" points="598.34 539.06 598.34 524.29 582.98 524.29 582.98 539.06 579.52 539.06 579.52 506.7 582.98 506.7 582.98 521.2 598.34 521.2 598.34 506.7 601.79 506.7 601.79 539.06 598.34 539.06"/><path class="cls-5" d="M659.66,519.54l-6.09,17.09h12.09ZM669.25,547l-2.59-7.32H652.53L649.94,547h-3.69l11.91-32.36h2.91L672.93,547Z" transform="translate(-39.24 -7.89)"/><path class="cls-1" d="M395.11,380.26c-2.54,2.61-7.65,6.57-10.16,6-6.43-1.43,3.05-18.3,8.56-22.51a36.68,36.68,0,0,1,14.6-6.82,18.83,18.83,0,0,1,5.1-.35c-5.92,8-11,16.46-18.1,23.67M223.32,368.37c-3.61,8.37-11.77,13.7-18.82,17.33-6.3,3.24-19.5,6.82-16.19-6.32s24.54-23.55,34.59-17.15a4.94,4.94,0,0,0,1.77.64,15.29,15.29,0,0,1-1.35,5.5m197.45,35.75c5.52,5.49,10.33,1.74,12-2,1.49-3.29.18-6.32-2.67-9.17-4-3.63-7.37-9.81-8-19-.46-6.29.5-12.48,3.06-16.47a2.6,2.6,0,0,1,.66-.14c3.27-.31,5.3-5.5,3.4-8.79-5.15-8.92-13.81-9.56-23-7.15-15.91,4.2-31.69,26.12-44.06,44.21-1.47,2.16-3,4.23-4.65,6.27-1.73,2.27-15.78,17.78-17.77,6.07-.21-3.19-1.19-6.54.29-28.88a15.53,15.53,0,0,0-4.61-13c-1.26-1.29-3.44-2-5.13-1-9.87,6.32-11.55,18.87-17.6,28.53-7.21,13.3-24.39,6.39-16.91-9.24,0,0,5.77-10.26,7.85-14.13a27.76,27.76,0,0,0,3.32-9.77c1.49-8.34-15.48-10.15-18.72-2.31a82.77,82.77,0,0,0-5.4,21.17c-5.57,8.88-13,16.33-20.64,23.35-4.53,4.14-17.34,14.36-22.47,17.83-.46-8.51.58-23.12-1.88-31.88,1.58-4.54,2.29-7.68.52-16.08-2.16-9.24-12.39-13.84-20.86-14.95-14.41-1.84-31.9,4.4-43.12,26.37-3.49,6.8-6.33,19.85,9.61,26.31,20.06,8.15,34.65.54,38.22-2.49.41,6.58.89,13.17,1.34,19.73-5.46,2.56-11,4.88-16.47,7-3,1.14-2.76,5.2-.88,7.73,3,3.75,11.29,6.82,18.69,4.05,2.31,31.65,4.85,63.23,7.37,94.87.59,7.51,12.28,6.15,12.68-1,.75-13.26-3.39-85.87-3.85-99.89,11.67-8.61,34-30.14,41.51-42.32,1.15,10.13,4.8,18.26,12.82,18.72,9,.52,19.39-2.33,33.28-23.26-1.48,15.93-.55,40.21,13.16,42,14.24,1.86,25.58-19.72,32.79-34.47.1,5.3,7.19,19.15,17.64,17.62,9-1.3,19.39-24.85,20.6-26.83a65.09,65.09,0,0,0,4.2,15.94,26,26,0,0,0,3.69,6.45" transform="translate(-39.24 -7.89)"/><path class="cls-1" d="M83,346.72c17.62-29.55,39-58.3,52.31-72.51-.2,2.15-2.16,23.81-3.74,46.85-10.61,4.53-41.38,19.63-48.57,25.66M200.9,536.51c-16.86-21.42-30.58-44.88-38.47-71.24s-14.14-61.58-16.38-93l.06-.06a344.87,344.87,0,0,1-.73-35.82c18.46-5.19,31.4-6.82,31.34-18.82,0-4.35-6.23-10.18-30.51-1.36,1.3-22.82,3.77-42.55,4.48-50,1-10.39,2.34-20.46-3.47-23.85-7.26-4.27-15.28,4.27-19.29,9.33A574.7,574.7,0,0,0,58.21,364.56c-9.13,19.57-18.49,53.26-19,69.16-.17,5.79,8.31,9.85,10.53-4.2A183.94,183.94,0,0,1,58,397.26,219.28,219.28,0,0,1,69,372c3.46-6.31,8.1-11,15.45-15.17a72.94,72.94,0,0,1,7.08-3.53,295.35,295.35,0,0,1,38.79-12.87c-.53,9.83-.87,18.94-.82,25.79h0c-1,47.1,5.05,100.19,15.68,142.9A224.58,224.58,0,0,0,161.57,555c5.6,11.25,13.56,27.93,26.76,30.53a22.88,22.88,0,0,0,22.45-8.81,24.33,24.33,0,0,0,4.62-13.59c.5-11.6-10.93-22-14.5-26.58" transform="translate(-39.24 -7.89)"/><path class="cls-1" d="M534.72,289c-4.59,30.29-30.13,57.57-33.76,63.18.46-30.76-.76-61.17-2.16-77.74,21.13-12.14,38.77-3.75,35.92,14.56m67.33,73.53c-18.38-18.48-21.27,28.27-30.76,42-16.28,23.57-23.72.37-33.91-17.18-10.33-17.76-25.25-18.9-37.35-9.62.12-1.95.51-5.21.85-7.7,3.49-3.66,70.11-69.68,46-113.5-3.47-6.31-11.83-12.57-28.32-8.85-7.54,1.55-15.6,5.89-22.07,10.09-.57-2.68-1.2-6.15-2.81-8.91-2.56-4.35-7.82-2-8,2.92-.12,3.32-.15,12.9-.15,13.95-9,8-29.95,29.65-34.67,34.1-4.06,3.82,1.57,10.25,5.7,6.49,6.37-5.8,24.88-22.67,28.81-25-.83,41.16-4.18,71.05-8.54,93.05A59,59,0,0,1,457.21,392s-9.15,4.53-9.31,10.68c0,2.4,2.52,9.7,15.89,3.13,2.32-1.23,6.44-3.87,6.52-3.93-6.73,21.58-13.59,27.87-18.09,34.29a19.35,19.35,0,0,0-4.48,11.25,19,19,0,0,0,17.71,20.19c8.33.47,15.93-3.87,18.81-11.38,4.57-9.79,11.86-36.51,14.49-59,10-2.66,20.13-3.8,27.15,9.71,13.23,28.69,34.87,26.73,47.86,19.49s43.87-48.21,28.29-63.85" transform="translate(-39.24 -7.89)"/></svg>